# AST/ASF file generated using VICON BodyLanguage
# -----------------------------------------------
:version 1.10
:name VICON
:units
  mass 1.0
  length 0.45
  angle deg
:documentation
   .ast/.asf automatically generated from VICON data using
   VICON BodyBuilder and BodyLanguage model FoxedUp or BRILLIANT.MOD
:root
   order TX TY TZ RX RY RZ
   axis XYZ
   position 0 0 0  
   orientation 0 0 0 
:bonedata
  begin
     id 1 
     name lhipjoint
     direction 0.624716 -0.669793 0.401383 
     length 2.38238 
     axis 0 0 0  XYZ
  end
  begin
     id 2 
     name lfemur
     direction 0.34202 -0.939693 0  
     length 6.4574  
     axis 0 0 20  XYZ
    dof rx ry rz
    limits (-160.0 20.0)
           (-70.0 70.0)
           (-60.0 70.0)
  end
  begin
     id 3 
     name ltibia
     direction 0.34202 -0.939693 0   
     length 7.68739   
     axis 0 0 20   XYZ
    dof rx
    limits (-10.0 170.0)
  end
  begin
     id 4 
     name lfoot
     direction 0.0681309 -0.187188 0.979959   
     length 2.46615   
     axis -90 7.62852e-016 20   XYZ
    dof rx rz
    limits (-45.0 90.0)
           (-70.0 20.0)
  end
  begin
     id 5 
     name ltoes
     direction 1.53566e-011 -4.21819e-011 1   
     length 1.2376   
     axis -90 7.62852e-016 20   XYZ
    dof rx
    limits (-90.0 20.0)
  end
  begin
     id 6 
     name rhipjoint
     direction -0.644473 -0.655875 0.393043   
     length 2.43293  
     axis 0 0 0  XYZ 
  end
  begin
     id 7 
     name rfemur
     direction -0.34202 -0.939693 0   
     length 6.7025   
     axis 0 0 -20   XYZ
    dof rx ry rz
    limits (-160.0 20.0)
           (-70.0 70.0)
           (-70.0 60.0)
  end
  begin
     id 8 
     name rtibia
     direction -0.34202 -0.939693 0   
     length 7.80547   
     axis 0 0 -20   XYZ
    dof rx
    limits (-10.0 170.0)
 end
 begin
     id 9 
     name rfoot
     direction -0.0756734 -0.207911 0.975216   
     length 2.40315  
     axis -90 -7.62852e-016 -20   XYZ
    dof rx rz
    limits (-45.0 90.0)
           (-20.0 70.0)
  end
  begin
     id 10 
     name rtoes
     direction -1.5353e-011 -4.21879e-011 1   
     length 1.20477   
     axis -90 -7.62852e-016 -20   XYZ
    dof rx
    limits (-90.0 20.0)
  end
  begin
     id 11 
     name lowerback
     direction 0.0160353 0.987463 -0.157037   
     length 2.18572   
     axis 0 0 0   XYZ
    dof rx ry rz
    limits (-20.0 45.0)
           (-30.0 30.0)
           (-30.0 30.0)
  end
  begin
     id 12 
     name upperback
     direction -0.00499661 0.999756 0.0215076   
     length 2.18016   
     axis 0 0 0   XYZ
    dof rx ry rz
    limits (-20.0 45.0)
           (-30.0 30.0)
           (-30.0 30.0)
  end
  begin
     id 13 
     name thorax
     direction -0.00921346 0.995333 0.0960619   
     length 2.24923   
     axis 0 0 0   XYZ
    dof rx ry rz
    limits (-20.0 45.0)
           (-30.0 30.0)
           (-30.0 30.0)
  end
  begin
     id 14 
     name lowerneck
     direction 0.0274184 0.991181 0.12965   
     length 1.70911   
     axis 0 0 0   XYZ
    dof rx ry rz
    limits (-20.0 45.0)
           (-30.0 30.0)
           (-30.0 30.0)
  end
  begin
     id 15 
     name upperneck
     direction 0.0015627 0.999959 -0.00893559   
     length 1.69312   
     axis 0 0 0   XYZ
    dof rx ry rz
    limits (-20.0 45.0)
           (-30.0 30.0)
           (-30.0 30.0)
  end
  begin
     id 16
     name head
     direction -0.00230242 0.999856 -0.0168327  
     length 1.80241  
     axis 0 0 0   XYZ
    dof rx ry rz
    limits (-20.0 45.0)
           (-30.0 30.0)
           (-30.0 30.0)
  end
  begin
     id 17 
     name lclavicle
     direction 0.955523 0.290741 -0.0494489  
     length 3.84275  
     axis 0 0 0   XYZ
    dof ry rz
    limits (-20.0 10.0)
           (0.0 20.0)
  end
  begin
     id 18 
     name lhumerus
     direction 1 -4.48967e-011 -3.18382e-028   
     length 5.17714   
     axis 180 -30 -90   XYZ
    dof rx ry rz
    limits (-60.0 90.0)
           (-90.0 90.0)
           (-90.0 90.0)
  end
  begin
     id 19
     name lradius
     direction 1 -4.48968e-011 -2.22911e-027   
     length 3.43679   
     axis 180 -30 -90   XYZ
    dof rx
    limits (-10.0 170.0)
  end
  begin
     id 20
     name lwrist
     direction 1 -4.48951e-011 -6.32245e-027   
     length 1.7184   
     axis 3.57107e-015 90 90   XYZ
    dof ry
    limits (-180.0 0.0)
 end
  begin
     id 21 
     name lhand
     direction 1 -4.48924e-011 -1.26431e-026   
     length 0.573117   
     axis 8.06912e-015 90 90   XYZ
    dof rx rz
    limits (-90.0 90.0)
           (-45.0 45.0)
  end
  begin
     id 22 
     name lfingers
     direction 1 -4.49001e-011 -2.52965e-026   
     length 0.462062   
     axis 1.61381e-014 90 90   XYZ
    dof rx
    limits (0.0 90.0)
  end
  begin
     id 23
     name lthumb
     direction 0.707107 -6.35008e-011 0.707107   
     length 0.663431   
     axis -90 45 -1.62303e-014   XYZ
    dof rx rz
    limits (-45.0 45.0)
           (-45.0 45.0)
  end
  begin
     id 24 
     name rclavicle
     direction -0.963917 0.256881 -0.0698287   
     length 3.73057  
     axis 0 0 0   XYZ 
    dof ry rz
    limits (-10.0 20.0)
           (-20.0 0.0)
  end
  begin
     id 25 
     name rhumerus
     direction -1 -4.48962e-011 -2.73982e-027  
     length 5.23908   
     axis 180 30 90   XYZ
    dof rx ry rz
    limits (-90.0 60.0)
           (-90.0 90.0)
           (-90.0 90.0)
  end
  begin
     id 26 
     name rradius
     direction -1 -4.48968e-011 -4.33218e-027   
     length 3.46485   
     axis 180 30 90   XYZ
    dof rx
    limits (-10.0 170.0)
  end
  begin
     id 27 
     name rwrist
     direction -1 -4.48989e-011 -6.32372e-027   
     length 1.73243   
     axis 3.57107e-015 -90 -90   XYZ
    dof ry
    limits (-180.0 0.0)
  end
  begin
     id 28
     name rhand
     direction -1 -4.48948e-011 -1.26448e-026   
     length 0.608752   
     axis 8.06912e-015 -90 -90   XYZ
    dof rx rz
    limits (-90.0 90.0)
           (-45.0 45.0)
  end
  begin
     id 29
     name rfingers
     direction -1 -4.48962e-011 -2.52913e-026   
     length 0.490792   
     axis 1.61381e-014 -90 -90   XYZ
    dof rx
    limits (0.0 90.0)
  end
  begin
     id 30
     name rthumb
     direction -0.707107 -6.34878e-011 0.707107   
     length 0.704682   
     axis -90 -45 1.62303e-014   XYZ
    dof rx rz
    limits (-45.0 45.0)
           (-45.0 45.0)
  end
:hierarchy
  begin
    root lhipjoint rhipjoint lowerback
    lhipjoint lfemur
    lfemur ltibia
    ltibia lfoot
    lfoot ltoes
    rhipjoint rfemur
    rfemur rtibia
    rtibia rfoot
    rfoot rtoes
    lowerback upperback
    upperback thorax
    thorax lowerneck lclavicle rclavicle
    lowerneck upperneck
    upperneck head
    lclavicle lhumerus
    lhumerus lradius
    lradius lwrist
    lwrist lhand lthumb
    lhand lfingers
    rclavicle rhumerus
    rhumerus rradius
    rradius rwrist
    rwrist rhand rthumb
    rhand rfingers
  end

#!OML:ASF G:\JayActor3\Patient Classification 1\Patient 1\Session 6\male.ASF
:FULLY-SPECIFIED
:DEGREES
407
root 50.4161 15.5396 -23.4273 8.71782 -74.5388 -11.3133
lowerback 1.40522 -2.20782 0.884468
upperback 5.61328 -3.04508 -0.606215
thorax 4.92931 -1.50577 -1.21131
lowerneck 0.00172453 4.69708 5.18465
upperneck 8.84121 6.21773 -2.30253
head 3.10607 3.14018 -1.47114
rclavicle 3.21037e-014 -8.74653e-015
rhumerus -34.961 -4.04845 -88.8118
rradius 33.4466
rwrist -1.75874
rhand -19.9878 -8.17124
rfingers 7.12502
rthumb 6.35159 -38.056
lclavicle 3.21037e-014 -8.74653e-015
lhumerus -21.0383 -4.75242 85.4182
lradius 45.1253
lwrist 17.5259
lhand -13.6857 14.3619
lfingers 7.12502
lthumb 12.4322 43.9722
rfemur -35.4563 8.75811 21.7383
rtibia 67.5178
rfoot -15.5485 -20.1321
rtoes -7.84966
lfemur 0.586319 15.8985 -23.3151
ltibia 23.7433
lfoot -21.8187 6.51075
ltoes 4.05379
408
root 50.3963 15.5409 -23.4063 8.65245 -74.5877 -11.2469
lowerback 1.3714 -2.21552 0.823129
upperback 5.64672 -3.05425 -0.646569
thorax 4.9844 -1.51185 -1.22172
lowerneck -0.0550151 4.74014 5.1505
upperneck 8.92482 6.26602 -2.21604
head 3.14216 3.16526 -1.43319
rclavicle 3.71727e-014 -6.36111e-015
rhumerus -34.9605 -3.96054 -88.9194
rradius 33.4657
rwrist -1.77943
rhand -19.9671 -8.18774
rfingers 7.12502
rthumb 6.37162 -38.0719
lclavicle 3.71727e-014 -6.36111e-015
lhumerus -21.0661 -4.75154 85.3428
lradius 45.3967
lwrist 17.4373
lhand -13.7085 14.3475
lfingers 7.12502
lthumb 12.4102 43.9591
rfemur -35.7599 8.75014 21.8608
rtibia 67.2208
rfoot -15.3063 -19.6716
rtoes -8.24133
lfemur 0.733413 15.9639 -23.3594
ltibia 23.6575
lfoot -21.7715 6.46475
ltoes 3.95719
409
root 50.3772 15.5425 -23.3859 8.67169 -74.6413 -11.2556
lowerback 1.3604 -2.22229 0.780804
upperback 5.66161 -3.06184 -0.682416
thorax 5.00633 -1.51661 -1.23637
lowerneck -0.0753008 4.78069 5.12412
upperneck 8.98125 6.31329 -2.14183
head 3.16293 3.18983 -1.40164
rclavicle 5.06901e-015 -7.95139e-016
rhumerus -34.9805 -3.84941 -89.0366
rradius 33.4843
rwrist -1.83401
rhand -19.9813 -8.17125
rfingers 7.12502
rthumb 6.35791 -38.0558
lclavicle 5.06901e-015 -7.95139e-016
lhumerus -21.119 -4.74847 85.2653
lradius 45.6802
lwrist 17.3611
lhand -13.7298 14.332
lfingers 7.12502
lthumb 12.3897 43.9448
rfemur -36.0743 8.7533 22.0112
rtibia 66.8787
rfoot -15.0019 -19.2482
rtoes -8.68442
lfemur 0.845612 16.0148 -23.3905
ltibia 23.6011
lfoot -21.7256 6.43896
ltoes 3.75051
410
root 50.3587 15.5446 -23.3659 8.8085 -74.7008 -11.3729
lowerback 1.37692 -2.22789 0.766642
upperback 5.65531 -3.06777 -0.711323
thorax 4.98929 -1.51966 -1.2575
lowerneck -0.0322418 4.80695 5.12272
upperneck 8.97576 6.34753 -2.11364
head 3.15316 3.20754 -1.39194
rclavicle 2.8128e-014 8.74653e-015
rhumerus -35.0256 -3.72225 -89.1566
rradius 33.507
rwrist -1.88693
rhand -19.9954 -8.15798
rfingers 7.12502
rthumb 6.34429 -38.043
lclavicle 2.8128e-014 8.74653e-015
lhumerus -21.1953 -4.7345 85.186
lradius 45.97
lwrist 17.2903
lhand -13.7384 14.2937
lfingers 7.12502
lthumb 12.3813 43.9071
rfemur -36.3971 8.77119 22.1979
rtibia 66.4901
rfoot -14.6367 -18.8706
rtoes -9.18036
lfemur 0.920938 16.0472 -23.4018
ltibia 23.5753
lfoot -21.6822 6.43533
ltoes 3.5596
411
root 50.3402 15.5471 -23.3461 9.00025 -74.763 -11.5446
lowerback 1.39818 -2.22936 0.770892
upperback 5.64844 -3.06846 -0.740617
thorax 4.96815 -1.51932 -1.28888
lowerneck 0.0445783 4.81624 5.14274
upperneck 8.93048 6.36237 -2.11259
head 3.12476 3.21561 -1.39666
rclavicle 2.98177e-016 7.95139e-016
rhumerus -35.0672 -3.59515 -89.2809
rradius 33.5269
rwrist -1.92617
rhand -19.9925 -8.1842
rfingers 7.12502
rthumb 6.34708 -38.0691
lclavicle 2.98177e-016 7.95139e-016
lhumerus -21.2666 -4.72066 85.1028
lradius 46.2599
lwrist 17.2194
lhand -13.7374 14.2523
lfingers 7.12502
lthumb 12.3823 43.8656
rfemur -36.7119 8.79228 22.4055
rtibia 66.0604
rfoot -14.2457 -18.525
rtoes -9.66382
lfemur 0.982956 16.0682 -23.4019
ltibia 23.5665
lfoot -21.641 6.43968
ltoes 3.40119
412
root 50.3214 15.5503 -23.3265 9.20487 -74.8267 -11.732
lowerback 1.41443 -2.2246 0.784755
upperback 5.64935 -3.06108 -0.774567
thorax 4.95752 -1.51438 -1.33069
lowerneck 0.139269 4.81718 5.17781
upperneck 8.86037 6.36733 -2.12012
head 3.0852 3.21906 -1.40777
rclavicle -1.82882e-014 -1.35174e-014
rhumerus -35.0983 -3.48186 -89.4074
rradius 33.5462
rwrist -1.94761
rhand -19.9971 -8.20593
rfingers 7.12502
rthumb 6.34261 -38.091
lclavicle -1.82882e-014 -1.35174e-014
lhumerus -21.3131 -4.71322 85.0139
lradius 46.5398
lwrist 17.1448
lhand -13.7214 14.224
lfingers 7.12502
lthumb 12.3978 43.8364
rfemur -37.0103 8.81813 22.6216
rtibia 65.5935
rfoot -13.8397 -18.2026
rtoes -10.1054
lfemur 1.05238 16.0852 -23.3978
ltibia 23.5504
lfoot -21.589 6.44761
ltoes 3.28483
413
root 50.3018 15.5538 -23.3067 9.34982 -74.8889 -11.8681
lowerback 1.41292 -2.22062 0.785745
upperback 5.67693 -3.05536 -0.813771
thorax 4.98543 -1.51058 -1.37253
lowerneck 0.246624 4.81256 5.226
upperneck 8.72885 6.36819 -2.15648
head 3.02404 3.22017 -1.43151
rclavicle 5.83433e-014 1.43125e-014
rhumerus -35.0831 -3.3608 -89.5396
rradius 33.5546
rwrist -1.96284
rhand -19.9952 -8.22822
rfingers 7.12502
rthumb 6.34441 -38.1132
lclavicle 5.83433e-014 1.43125e-014
lhumerus -21.312 -4.68411 84.9174
lradius 46.8097
lwrist 17.0561
lhand -13.7002 14.1945
lfingers 7.12502
lthumb 12.4181 43.8056
rfemur -37.2829 8.83255 22.8278
rtibia 65.0986
rfoot -13.4254 -17.8965
rtoes -10.5372
lfemur 1.15656 16.1072 -23.4008
ltibia 23.4997
lfoot -21.5125 6.44116
ltoes 3.26836
414
root 50.2812 15.558 -23.2869 9.38233 -74.9478 -11.9034
lowerback 1.40494 -2.21613 0.762635
upperback 5.71989 -3.04877 -0.86255
thorax 5.03395 -1.50717 -1.41166
lowerneck 0.279673 4.83429 5.23378
upperneck 8.67298 6.39598 -2.12124
head 2.99879 3.23521 -1.42156
rclavicle -2.127e-014 0
rhumerus -35.0525 -3.2408 -89.6739
rradius 33.5639
rwrist -1.97397
rhand -19.9791 -8.26889
rfingers 7.12502
rthumb 6.35998 -38.1534
lclavicle -2.127e-014 0
lhumerus -21.2904 -4.64664 84.8169
lradius 47.0761
lwrist 16.9496
lhand -13.6787 14.1857
lfingers 7.12502
lthumb 12.4389 43.7956
rfemur -37.5246 8.83675 23.0098
rtibia 64.5789
rfoot -13.0296 -17.6028
rtoes -10.8514
lfemur 1.30935 16.1345 -23.4215
ltibia 23.4015
lfoot -21.4077 6.41561
ltoes 3.33528
415
root 50.2591 15.5629 -23.2668 9.23798 -75.0012 -11.7775
lowerback 1.40259 -2.21231 0.705917
upperback 5.77181 -3.04223 -0.927675
thorax 5.08954 -1.50499 -1.44903
lowerneck 0.322815 4.85534 5.2469
upperneck 8.59583 6.4236 -2.08773
head 2.96475 3.2503 -1.41353
rclavicle -1.45113e-014 8.74653e-015
rhumerus -35.0261 -3.12568 -89.8098
rradius 33.5804
rwrist -1.9818
rhand -19.9275 -8.31814
rfingers 7.12502
rthumb 6.40979 -38.2012
lclavicle -1.45113e-014 8.74653e-015
lhumerus -21.2625 -4.60518 84.7116
lradius 47.3365
lwrist 16.8142
lhand -13.6557 14.1859
lfingers 7.12502
lthumb 12.4611 43.7944
rfemur -37.7289 8.82056 23.1501
rtibia 64.0404
rfoot -12.6495 -17.3143
rtoes -11.0645
lfemur 1.52033 16.1747 -23.4711
ltibia 23.256
lfoot -21.2771 6.36182
ltoes 3.44025
416
root 50.2361 15.5683 -23.2468 9.04478 -75.0521 -11.6065
lowerback 1.41652 -2.21157 0.638229
upperback 5.81221 -3.03905 -0.996946
thorax 5.12399 -1.50507 -1.48354
lowerneck 0.387309 4.87378 5.26474
upperneck 8.50839 6.4493 -2.063
head 2.92383 3.26432 -1.40989
rclavicle 3.53837e-014 2.38542e-015
rhumerus -35.0295 -3.00252 -89.9455
rradius 33.6127
rwrist -1.97908
rhand -19.8464 -8.39685
rfingers 7.12502
rthumb 6.48814 -38.2775
lclavicle 3.53837e-014 2.38542e-015
lhumerus -21.2626 -4.5449 84.6036
lradius 47.5998
lwrist 16.6399
lhand -13.6388 14.1802
lfingers 7.12502
lthumb 12.4774 43.7877
rfemur -37.9169 8.79893 23.2828
rtibia 63.4792
rfoot -12.2419 -17.0661
rtoes -11.2395
lfemur 1.75996 16.2199 -23.5239
ltibia 23.0731
lfoot -21.1227 6.29245
ltoes 3.58621
417
root 50.2131 15.5741 -23.2274 8.82862 -75.1021 -11.4082
lowerback 1.43614 -2.21365 0.563765
upperback 5.85115 -3.03942 -1.06836
thorax 5.15382 -1.50727 -1.51631
lowerneck 0.428059 4.89673 5.26349
upperneck 8.44623 6.47842 -2.01394
head 2.89414 3.28004 -1.39414
rclavicle -5.55603e-014 -5.56597e-015
rhumerus -35.0402 -2.86107 -90.089
rradius 33.6622
rwrist -2.00474
rhand -19.7802 -8.45487
rfingers 7.12502
rthumb 6.55201 -38.3335
lclavicle -5.55603e-014 -5.56597e-015
lhumerus -21.2652 -4.47136 84.4914
lradius 47.8655
lwrist 16.4236
lhand -13.6296 14.1565
lfingers 7.12502
lthumb 12.4863 43.7635
rfemur -38.1045 8.77691 23.4112
rtibia 62.8965
rfoot -11.8217 -16.8496
rtoes -11.3276
lfemur 2.00947 16.2634 -23.5799
ltibia 22.8601
lfoot -20.9442 6.21577
ltoes 3.62457
418
root 50.1901 15.5806 -23.2086 8.64907 -75.1483 -11.2382
lowerback 1.4645 -2.21531 0.497728
upperback 5.88075 -3.03909 -1.14039
thorax 5.16841 -1.5088 -1.55368
lowerneck 0.479633 4.91754 5.2734
upperneck 8.37292 6.50569 -1.97308
head 2.8595 3.29494 -1.38347
rclavicle 3.16068e-014 1.03368e-014
rhumerus -35.068 -2.72247 -90.2353
rradius 33.727
rwrist -2.0295
rhand -19.7405 -8.47588
rfingers 7.12502
rthumb 6.59037 -38.3533
lclavicle 3.16068e-014 1.03368e-014
lhumerus -21.274 -4.39769 84.3738
lradius 48.1271
lwrist 16.1541
lhand -13.6236 14.1046
lfingers 7.12502
lthumb 12.4921 43.7113
rfemur -38.295 8.76072 23.5502
rtibia 62.288
rfoot -11.3649 -16.6738
rtoes -11.3392
lfemur 2.2541 16.3034 -23.6237
ltibia 22.6328
lfoot -20.7529 6.12859
ltoes 3.64836
419
root 50.1665 15.5876 -23.1899 8.43993 -75.1856 -11.0394
lowerback 1.49237 -2.22104 0.425704
upperback 5.91391 -3.04422 -1.21386
thorax 5.18712 -1.51333 -1.58952
lowerneck 0.531265 4.93525 5.28615
upperneck 8.29015 6.52963 -1.941
head 2.82207 3.308 -1.37638
rclavicle -2.84262e-014 1.90833e-014
rhumerus -35.0926 -2.57557 -90.382
rradius 33.7986
rwrist -2.0493
rhand -19.7217 -8.46905
rfingers 7.12502
rthumb 6.60846 -38.3459
lclavicle -2.84262e-014 1.90833e-014
lhumerus -21.2827 -4.32653 84.2578
lradius 48.3932
lwrist 15.8152
lhand -13.6504 14.0722
lfingers 7.12502
lthumb 12.4662 43.6804
rfemur -38.4703 8.73731 23.6847
rtibia 61.6554
rfoot -10.8829 -16.5287
rtoes -11.3088
lfemur 2.50559 16.3507 -23.6633
ltibia 22.402
lfoot -20.5627 6.01428
ltoes 3.67301
420
root 50.1425 15.5951 -23.1715 8.23302 -75.2122 -10.8428
lowerback 1.52009 -2.22774 0.357302
upperback 5.94852 -3.05072 -1.28913
thorax 5.20717 -1.51835 -1.62936
lowerneck 0.574841 4.95907 5.29956
upperneck 8.22592 6.56017 -1.89543
head 2.79215 3.32466 -1.36451
rclavicle -2.76311e-014 -6.36111e-015
rhumerus -35.1163 -2.42777 -90.5323
rradius 33.8736
rwrist -2.07742
rhand -19.7335 -8.42643
rfingers 7.12502
rthumb 6.59711 -38.3037
lclavicle -2.76311e-014 -6.36111e-015
lhumerus -21.2865 -4.27092 84.1409
lradius 48.6573
lwrist 15.4012
lhand -13.6961 14.0377
lfingers 7.12502
lthumb 12.4221 43.6485
rfemur -38.6324 8.70574 23.8238
rtibia 60.9961
rfoot -10.3938 -16.4039
rtoes -11.1616
lfemur 2.76025 16.3975 -23.6934
ltibia 22.1679
lfoot -20.3685 5.89042
ltoes 3.63545
